<svg xmlns="http://www.w3.org/2000/svg" viewBox="0 0 25 25"><defs><style>.cls-1{fill:#231f20;}</style></defs><g id="lamp"><path class="cls-1" d="M17,1.43A.51.51,0,0,0,16.5,1h-8a.51.51,0,0,0-.5.43l-1,7a.53.53,0,0,0,.12.4A.5.5,0,0,0,7.5,9H12V20.05A3.5,3.5,0,0,0,9,23.5a.5.5,0,0,0,.5.5h6a.5.5,0,0,0,.5-.5,3.5,3.5,0,0,0-3-3.45V9h2v1.5a.5.5,0,0,0,1,0V9h1.5a.5.5,0,0,0,.38-.17.53.53,0,0,0,.12-.4ZM15,23h-4.9A2.5,2.5,0,0,1,15,23ZM8.08,8l.85-6h7.14l.85,6Z"/><path class="cls-1" d="M15.5,12a.5.5,0,0,0-.5.5v.14a.5.5,0,0,0,1,0V12.5A.5.5,0,0,0,15.5,12Z"/></g></svg>