<svg id="icon" xmlns="http://www.w3.org/2000/svg" viewBox="0 0 512 512"><path d="M113.8,275C88.02,286.18,61.911,303.03,43.07,328.4v88.63H368.046V328.4C307.708,253.544,198.636,238.714,113.8,275Z" style="fill:#d85656"/><path d="M179.18,360.76H127.831a26.378,26.378,0,0,0-26.378,26.378v13.013h104.1V387.138A26.378,26.378,0,0,0,179.18,360.76Z" style="fill:#ff7b69"/><path d="M231.936,360.76h51.349a26.378,26.378,0,0,1,26.378,26.378v13.013H205.558V387.138A26.378,26.378,0,0,1,231.936,360.76Z" style="fill:#ff7b69"/><path d="M365.838,312.928h-7.991a48.184,48.184,0,0,0-48.184,48.184v39.039H101.453V361.112a48.184,48.184,0,0,0-48.184-48.184H45.278a21.707,21.707,0,0,0-21.707,21.708V466.865H387.546V334.636A21.708,21.708,0,0,0,365.838,312.928Z" style="fill:#ff7b69"/><rect x="418.813" y="219.738" width="23.693" height="247.126" style="fill:#e6e6e6"/><path d="M401.893,265.305a13.284,13.284,0,0,1-13.285,13.284c-17.585-.607-17.58-25.963,0-26.568A13.285,13.285,0,0,1,401.893,265.305Z" style="fill:#53737f"/><rect x="126.596" y="45.135" width="158.477" height="116.56" rx="17.684" style="fill:#7f99cc"/><rect x="154.057" y="71.071" width="103.553" height="64.689" style="fill:#fff"/><rect x="418.813" y="219.738" width="23.693" height="19.513" style="fill:#ccc"/><path d="M468.847,157.725a18.841,18.841,0,0,0-17.968-13.168H410.44a18.841,18.841,0,0,0-17.968,13.168l-19.583,62.013H488.43Z" style="fill:#ffb14a"/><path d="M76.737,288.629c-6.177,4.451.036,13.794,6.559,9.617,71.671-48.442,173.2-48.382,244.793.185a5.821,5.821,0,0,0,6.576-9.606C259.225,237.564,152.262,237.5,76.737,288.629Z" style="fill:#333"/><path d="M23.57,472.684H387.546a5.82,5.82,0,0,0,5.82-5.82V334.635a27.56,27.56,0,0,0-27.528-27.528h-7.991a54.113,54.113,0,0,0-54,55.271,32.048,32.048,0,0,0-20.557-7.439H231.937a32.18,32.18,0,0,0-26.379,13.768,32.178,32.178,0,0,0-26.377-13.768H127.832a32.051,32.051,0,0,0-20.559,7.439c.42-34.426-28.374-58.264-61.995-55.27A27.558,27.558,0,0,0,17.75,334.635V466.864A5.82,5.82,0,0,0,23.57,472.684Zm187.808-85.546a20.581,20.581,0,0,1,20.559-20.558h51.349a20.581,20.581,0,0,1,20.557,20.558c.389,3.75-1.459,7.069-5.513,7.193H211.378Zm-104.1,0a20.581,20.581,0,0,1,20.559-20.558h51.349a20.581,20.581,0,0,1,20.557,20.558v7.193H112.786C108.743,394.211,106.879,390.889,107.273,387.138Zm-77.883-52.5a15.907,15.907,0,0,1,15.888-15.888H53.27a42.411,42.411,0,0,1,42.363,42.365v27.706a17.172,17.172,0,0,0,17.153,17.154c46.252-.018,139.305.012,185.544,0a17.342,17.342,0,0,0,17.153-18.834V361.112a42.412,42.412,0,0,1,42.364-42.365h7.991a15.907,15.907,0,0,1,15.888,15.888V461.044H29.39Z" style="fill:#333"/><path d="M418.813,472.684h23.693a5.82,5.82,0,0,0,5.82-5.82V225.558h40.1a5.86,5.86,0,0,0,5.55-7.572L474.4,155.974a24.568,24.568,0,0,0-23.518-17.238H410.439a24.567,24.567,0,0,0-23.517,17.238l-19.583,62.012a5.86,5.86,0,0,0,5.55,7.572h9.9v21.556c-20.445,6.809-15.992,36.943,5.82,37.3,21.813-.356,26.26-30.49,5.82-37.3V225.558h18.564V466.864A5.82,5.82,0,0,0,418.813,472.684Zm17.873-11.64H424.633V225.558h12.053ZM396.072,265.305c-.313,9.866-14.616,9.862-14.927,0C381.457,255.441,395.76,255.442,396.072,265.305Zm-15.241-51.387,17.192-54.44a12.97,12.97,0,0,1,12.416-9.1H450.88a12.971,12.971,0,0,1,12.417,9.1l17.191,54.44Z" style="fill:#333"/><path d="M267.39,167.516a23.529,23.529,0,0,0,23.5-23.5V62.818a23.529,23.529,0,0,0-23.5-23.5H144.279a23.53,23.53,0,0,0-23.5,23.5v81.194a23.53,23.53,0,0,0,23.5,23.5Zm-134.974-23.5V62.818a11.876,11.876,0,0,1,11.863-11.862H267.39a11.876,11.876,0,0,1,11.862,11.862v81.194a11.877,11.877,0,0,1-11.862,11.864H144.279A11.876,11.876,0,0,1,132.416,144.012Z" style="fill:#333"/><path d="M154.057,141.581h47.527c7.671-.193,7.679-11.446,0-11.641H159.877V76.892H251.79V129.94H246c-7.685.192-7.664,11.454,0,11.641h11.614a5.82,5.82,0,0,0,5.82-5.82V71.071a5.82,5.82,0,0,0-5.82-5.82H154.057a5.82,5.82,0,0,0-5.82,5.82v64.69A5.82,5.82,0,0,0,154.057,141.581Z" style="fill:#333"/><path d="M227.158,130.925c-6.492-4.105-12.727,5.254-6.461,9.677C227.186,144.7,233.43,135.333,227.158,130.925Z" style="fill:#333"/></svg>